<svg width="541" height="181" viewBox="0 0 541 181" fill="none" xmlns="http://www.w3.org/2000/svg">
<path fill-rule="evenodd" clip-rule="evenodd" d="M225.414 89.9652V1.60645H247.956V47.4546C256.214 41.8393 266.191 38.5564 276.937 38.5564C305.394 38.5564 328.461 61.5729 328.461 89.9652C328.461 118.357 305.394 141.374 276.937 141.374C248.483 141.374 225.414 118.357 225.414 89.9652ZM276.937 118.883C260.932 118.883 247.956 105.936 247.956 89.9652C247.956 73.9946 260.932 61.0479 276.937 61.0479C292.944 61.0479 305.92 73.9946 305.92 89.9652C305.92 105.936 292.944 118.883 276.937 118.883Z" fill="white"/>
<path fill-rule="evenodd" clip-rule="evenodd" d="M191.603 132.476V139.768H214.145V89.9655C214.145 61.5731 191.076 38.5566 162.621 38.5566C134.165 38.5566 111.098 61.5731 111.098 89.9655C111.098 118.358 134.165 141.374 162.621 141.374C173.368 141.374 183.345 138.091 191.603 132.476ZM133.639 89.9655C133.639 73.9948 146.615 61.0481 162.621 61.0481C178.627 61.0481 191.603 73.9948 191.603 89.9655C191.603 105.936 178.627 118.883 162.621 118.883C146.615 118.883 133.639 105.936 133.639 89.9655Z" fill="white"/>
<path d="M51.5234 61.0481C35.5171 61.0481 22.5414 73.9948 22.5414 89.9655C22.5414 105.936 35.5171 118.883 51.5234 118.883C63.532 118.883 73.8348 111.595 78.2321 101.211H101.81C96.6701 124.195 76.1075 141.374 51.5234 141.374C23.0678 141.374 0 118.358 0 89.9655C0 61.5731 23.0678 38.5566 51.5234 38.5566C76.1075 38.5566 96.6701 55.7363 101.81 78.7197H78.2321C73.8348 68.3353 63.532 61.0481 51.5234 61.0481Z" fill="white"/>
<path d="M341.344 40.1631V139.768H363.886V40.1631H341.344Z" fill="white"/>
<path d="M445.62 3.32441C440.817 1.18773 435.499 0 429.899 0C408.558 0 391.257 17.2624 391.257 38.5565V40.1674L376.766 40.1685V62.66H391.257V139.768H413.799V62.66H442.78L474.534 133.821L468.252 147.901C464.636 156.006 455.118 159.652 446.995 156.043L437.826 176.59C457.322 185.251 480.164 176.502 488.844 157.049L541.002 40.1631H516.328L486.871 106.173L463.374 53.5121C459.638 45.1411 451.408 40.1681 442.78 40.1631L413.799 40.1655V38.5565C413.799 29.684 421.007 22.4913 429.899 22.4913C432.232 22.4913 434.449 22.9862 436.451 23.8763L445.62 3.32441Z" fill="white"/>
<path d="M365.493 12.8522C365.493 19.9502 359.725 25.7044 352.612 25.7044C345.498 25.7044 339.73 19.9502 339.73 12.8522C339.73 5.75412 345.498 0 352.612 0C359.725 0 365.493 5.75412 365.493 12.8522Z" fill="white"/>
</svg>
