<svg width="541" height="435" viewBox="0 0 541 435" fill="none" xmlns="http://www.w3.org/2000/svg">
<g clip-path="url(#clip0_1580_7)">
<path d="M95.9766 178.461L0.384639 377.399C0.10419 377.984 -0.0232555 378.631 0.0142155 379.28C0.0516864 379.928 0.25285 380.556 0.598907 381.105C0.944964 381.654 1.42461 382.107 1.99305 382.421C2.56149 382.734 3.20015 382.899 3.84936 382.898H124.107C125.592 382.898 126.93 382.064 127.572 380.726L165.464 301.963C165.726 301.425 165.858 300.833 165.85 300.234C165.842 299.636 165.694 299.047 165.418 298.516L102.842 178.351C102.523 177.723 102.037 177.197 101.436 176.832C100.835 176.466 100.145 176.274 99.4413 176.279C98.7154 176.272 98.0028 176.474 97.3885 176.861C96.7742 177.248 96.2841 177.803 95.9766 178.461Z" fill="white"/>
<path d="M437.892 178.35L375.316 298.516C375.041 299.047 374.893 299.635 374.883 300.233C374.874 300.831 375.003 301.423 375.261 301.963L413.171 380.726C413.48 381.38 413.97 381.931 414.582 382.316C415.194 382.701 415.904 382.903 416.627 382.898H536.884C539.717 382.898 541.577 379.947 540.349 377.399L444.757 178.46C444.45 177.804 443.962 177.25 443.349 176.863C442.737 176.477 442.026 176.274 441.302 176.279C440.597 176.274 439.905 176.465 439.303 176.83C438.7 177.196 438.212 177.723 437.892 178.35Z" fill="white"/>
<path d="M456.146 117.053H326.099C324.944 117.053 323.81 117.354 322.807 117.926C321.804 118.498 320.967 119.322 320.379 120.316L274.705 197.667C274.106 198.682 273.248 199.518 272.219 200.091C271.19 200.664 270.027 200.953 268.849 200.928C267.672 200.902 266.522 200.564 265.518 199.948C264.515 199.331 263.693 198.459 263.138 197.42L159.361 3.51371C158.796 2.45343 157.953 1.5667 156.923 0.948336C155.893 0.329976 154.714 0.00326203 153.513 0.00315134H15.1525C13.9768 0.00302036 12.8221 0.315287 11.8066 0.907986C10.7911 1.50069 9.95133 2.35253 9.37321 3.37637C8.79509 4.4002 8.49937 5.55928 8.51631 6.73494C8.53325 7.9106 8.86227 9.06063 9.46965 10.0674L263.083 431.528C263.67 432.504 264.499 433.312 265.489 433.875C266.479 434.438 267.598 434.737 268.737 434.742C269.876 434.748 270.997 434.46 271.992 433.907C272.988 433.353 273.824 432.553 274.421 431.583L461.801 127.172C462.418 126.165 462.756 125.013 462.78 123.832C462.804 122.652 462.513 121.487 461.937 120.456C461.361 119.425 460.521 118.567 459.503 117.969C458.485 117.371 457.326 117.054 456.146 117.053Z" fill="white"/>
</g>
<defs>
<clipPath id="clip0_1580_7">
<rect width="540.737" height="434.739" fill="white"/>
</clipPath>
</defs>
</svg>
